<?xml version="1.0" standalone="no"?>
<!DOCTYPE svg PUBLIC "-//W3C//DTD SVG 20010904//EN"
 "http://www.w3.org/TR/2001/REC-SVG-20010904/DTD/svg10.dtd">
<svg version="1.0" xmlns="http://www.w3.org/2000/svg"
 width="2084.000000pt" height="2084.000000pt" viewBox="0 0 2084.000000 2084.000000"
 preserveAspectRatio="xMidYMid meet">
<metadata>
Created by potrace 1.11, written by Peter Selinger 2001-2013
</metadata>
<g transform="translate(0.000000,2084.000000) scale(0.100000,-0.100000)"
fill="#000000" stroke="none">
<path d="M5963 20368 c-56 -84 -169 -252 -250 -373 -429 -635 -753 -1114 -908
-1346 -60 -90 -114 -168 -118 -174 -4 -5 -96 -140 -203 -300 -107 -159 -243
-361 -302 -448 -59 -87 -111 -165 -117 -175 -5 -9 -12 -19 -15 -22 -3 -3 -24
-33 -47 -68 l-41 -63 3 -537 c2 -295 7 -901 10 -1347 4 -445 7 -908 8 -1027
l1 -218 106 -41 c58 -23 119 -47 135 -54 17 -7 68 -28 115 -45 47 -18 99 -38
115 -46 17 -7 136 -54 265 -104 129 -50 249 -97 265 -104 17 -8 68 -28 115
-46 47 -17 99 -38 115 -45 17 -7 46 -18 65 -25 19 -7 49 -18 65 -25 17 -7 107
-43 200 -80 644 -252 913 -360 911 -364 -2 -3 -7 -31 -10 -61 -4 -30 -11 -84
-17 -120 -5 -36 -12 -76 -14 -90 -9 -66 -18 -127 -20 -145 -5 -32 -16 -108
-20 -135 -3 -14 -9 -56 -14 -95 -6 -38 -13 -86 -16 -105 -35 -231 -81 -543
-91 -625 -3 -22 -9 -62 -14 -90 -5 -27 -12 -70 -15 -95 -4 -25 -13 -90 -21
-145 -8 -55 -17 -112 -19 -126 -3 -28 -24 -169 -30 -209 -2 -14 -7 -47 -10
-75 -4 -27 -8 -57 -10 -65 -2 -8 -7 -37 -11 -65 -3 -27 -8 -57 -9 -66 -2 -9
-6 -40 -10 -69 -4 -29 -9 -62 -11 -74 -2 -11 -6 -38 -9 -61 -4 -22 -8 -51 -10
-65 -2 -14 -7 -45 -10 -70 -3 -25 -8 -58 -11 -75 -3 -16 -7 -46 -10 -65 -2
-19 -9 -62 -14 -95 -5 -33 -12 -80 -15 -105 -11 -83 -25 -171 -31 -205 -2 -11
-6 -40 -9 -65 -3 -25 -8 -54 -10 -65 -2 -11 -7 -45 -10 -75 -3 -30 -8 -62 -10
-70 -2 -8 -7 -35 -10 -60 -3 -25 -8 -56 -10 -70 -5 -31 -25 -164 -30 -205 -3
-16 -7 -48 -10 -70 -4 -22 -9 -53 -11 -70 -2 -16 -6 -41 -9 -55 -2 -14 -7 -45
-10 -70 -6 -48 -15 -114 -20 -141 -2 -9 -6 -39 -10 -67 l-6 -50 525 -1050 525
-1050 133 -83 c73 -45 166 -103 205 -128 40 -25 83 -51 94 -58 22 -11 118 -71
265 -165 41 -27 77 -48 80 -48 3 0 17 -8 32 -19 15 -10 59 -37 97 -61 39 -24
86 -53 105 -66 19 -12 150 -93 290 -179 409 -253 369 -225 371 -265 0 -19 2
-69 4 -110 2 -41 6 -169 10 -285 3 -115 8 -266 10 -335 5 -121 8 -241 20 -625
3 -99 7 -235 10 -302 2 -67 7 -211 10 -320 3 -109 8 -241 10 -293 4 -83 7
-191 20 -630 5 -163 16 -510 20 -635 7 -203 15 -443 20 -593 l4 -143 107 -102
c59 -56 128 -122 154 -147 26 -25 120 -115 210 -200 89 -85 188 -180 220 -210
32 -30 135 -129 230 -220 95 -91 202 -193 237 -226 l66 -61 1556 1 1556 1 136
275 c580 1167 1139 2300 1139 2306 0 3 -19 23 -42 44 -24 21 -64 58 -89 82
-25 23 -88 81 -139 128 -51 47 -108 99 -126 115 -68 63 -210 195 -239 221 -16
15 -75 68 -129 118 -110 101 -120 110 -267 246 -197 181 -223 205 -244 225
-35 33 -225 206 -291 265 l-61 55 3 320 c2 176 6 565 10 865 3 300 6 555 5
568 0 12 26 72 58 132 33 61 69 129 81 153 12 23 31 60 44 82 12 22 48 90 80
150 98 183 137 258 166 310 34 63 110 205 167 315 25 47 53 99 63 115 9 17 43
80 75 140 96 183 188 354 235 440 50 89 118 224 115 227 -2 2 -6 39 -9 83 -4
44 -9 87 -11 95 -2 8 -6 47 -10 85 -8 85 -15 152 -20 185 -2 14 -6 57 -10 95
-3 39 -8 88 -11 110 -12 82 -10 110 11 136 11 14 34 43 50 64 17 21 126 160
243 309 l212 271 -5 55 c-3 30 -8 80 -10 110 -2 30 -7 81 -10 113 -3 31 -7 83
-10 115 -8 99 -22 255 -30 336 -3 30 -8 83 -10 117 -4 58 -7 89 -20 229 -2 25
-7 79 -10 120 -3 41 -8 86 -10 100 -2 14 -7 65 -10 114 -4 49 -8 96 -10 105
-1 9 -6 60 -10 113 -3 54 -8 110 -10 125 -2 16 -6 64 -9 108 -4 44 -8 98 -11
120 -2 22 -7 72 -10 110 -3 39 -8 88 -10 110 -2 22 -7 76 -11 120 -3 44 -8 94
-9 110 -2 17 -6 66 -10 110 -3 44 -8 98 -10 120 -3 22 -7 72 -10 110 -3 39 -7
88 -10 110 -2 22 -7 72 -10 110 -3 39 -8 93 -10 120 -3 28 -7 77 -10 110 -3
33 -7 80 -10 105 -2 25 -7 79 -10 120 -3 41 -8 91 -10 110 -2 19 -7 69 -10
110 -11 134 -13 158 -31 350 -6 63 -11 123 -19 230 -3 41 -8 91 -10 110 -3 19
-7 71 -10 115 -3 44 -8 91 -10 105 -2 14 -7 63 -10 110 -3 47 -7 101 -10 120
-5 40 -16 156 -20 215 -4 54 -15 180 -21 234 -2 24 -7 75 -9 115 -3 39 -7 91
-10 116 -3 25 -7 74 -10 110 -5 63 -11 127 -20 220 -2 25 -7 77 -10 115 -3 39
-8 86 -10 105 -2 19 -7 78 -10 130 -4 52 -9 98 -11 101 -2 4 91 177 207 385
116 209 214 386 217 394 3 8 11 22 17 30 7 8 34 56 60 105 26 50 51 95 55 100
4 6 23 39 43 75 19 36 80 146 135 245 55 99 100 181 99 181 -3 2 -316 163
-592 304 -132 67 -321 164 -420 215 -99 51 -274 141 -390 200 -115 59 -295
152 -400 205 -263 135 -871 446 -1210 620 -121 62 -287 147 -370 190 -82 43
-247 127 -365 187 -118 61 -323 166 -454 233 -241 124 -281 138 -455 166 -18
3 -43 8 -55 10 -11 2 -34 7 -51 10 -16 3 -48 9 -70 14 -22 5 -56 12 -75 15
-19 3 -66 12 -105 20 -38 8 -81 16 -95 19 -14 2 -74 14 -135 26 -129 26 -121
24 -250 49 -55 11 -192 38 -305 60 -113 22 -216 42 -230 45 -14 2 -86 16 -160
31 -74 15 -146 29 -160 31 -14 3 -32 7 -40 9 -8 2 -31 7 -50 10 -19 3 -91 17
-160 31 -69 13 -134 26 -145 28 -11 2 -92 18 -180 35 -88 17 -171 33 -185 36
-14 3 -36 7 -50 10 -14 3 -34 7 -46 9 -11 2 -79 16 -150 30 -71 14 -140 27
-154 29 -54 10 -448 87 -490 97 -25 5 -105 21 -179 36 -161 31 -156 30 -206
38 l-40 6 -102 -152z"/>
</g>
</svg>
